<svg width="18" height="18" viewBox="0 0 18 18" fill="none" xmlns="http://www.w3.org/2000/svg">
<circle cx="9" cy="9" r="8" stroke="#14171B" stroke-width="2"/>
<path d="M8.99967 6.99951C9.49951 5.49951 7.31401 4.1999 10.195 0.899902C18.7222 2.8199 17.5892 10.0999 15.9568 13.4999C15.9568 11.8999 16.4752 10.0199 15.0924 9.2999C13.3639 8.3999 12.4996 9.94276 11.9235 10.1999C9.90686 11.0999 7.95823 10.1248 8.99967 6.99951Z" fill="#14171B" stroke="#14171B"/>
<path d="M5.04407 10.6715C3.40116 11.7001 1.62134 9.38581 0.936799 8.1001C0.467397 14.2715 4.6529 16.6715 6.80433 17.1001C5.9242 16.7787 5.9242 14.8501 6.80433 13.243C7.68446 11.6358 7.09771 9.38581 5.04407 10.6715Z" fill="#14171B" stroke="#14171B"/>
</svg>
